<svg xmlns="http://www.w3.org/2000/svg" width="1200" height="320" viewBox="0 0 1200 320" role="img" aria-label="SocialOmni hero banner">
  <defs>
    <linearGradient id="bg" x1="0" y1="0" x2="1" y2="1">
      <stop offset="0%" stop-color="#f2f8ff"/>
      <stop offset="50%" stop-color="#f0fcf7"/>
      <stop offset="100%" stop-color="#fff6ee"/>
    </linearGradient>
    <linearGradient id="brand" x1="0" y1="0" x2="1" y2="0">
      <stop offset="0%" stop-color="#2351d3"/>
      <stop offset="55%" stop-color="#0ea59a"/>
      <stop offset="100%" stop-color="#dd7a1e"/>
    </linearGradient>
  </defs>

  <rect x="0" y="0" width="1200" height="320" fill="url(#bg)"/>
  <rect x="20" y="20" width="1160" height="280" rx="18" fill="#ffffff" stroke="#bfd4e8" stroke-width="2"/>

  <g transform="translate(56,58)">
    <rect x="0" y="0" width="84" height="84" rx="18" fill="#edf4ff" stroke="#9bb9ef"/>
    <circle cx="42" cy="42" r="23" fill="none" stroke="#345fcb" stroke-width="4"/>
    <circle cx="42" cy="42" r="6" fill="#0ea59a"/>

    <text x="106" y="36" fill="url(#brand)" font-family="Verdana, Arial, sans-serif" font-size="52" font-weight="700">SocialOmni</text>
    <text x="106" y="68" fill="#2a4659" font-family="Verdana, Arial, sans-serif" font-size="20">Benchmarking Audio-Visual Social Interactivity in Omni Models</text>
    <text x="106" y="96" fill="#4a6272" font-family="Verdana, Arial, sans-serif" font-size="16">Who speaks | When to interrupt | How to respond naturally</text>

    <rect x="106" y="122" width="122" height="30" rx="15" fill="#ebf2ff" stroke="#9fb8e9"/>
    <text x="124" y="142" fill="#244156" font-family="Verdana, Arial, sans-serif" font-size="14" font-weight="700">2209 videos</text>

    <rect x="240" y="122" width="126" height="30" rx="15" fill="#eafbf3" stroke="#9bd1be"/>
    <text x="258" y="142" fill="#244156" font-family="Verdana, Arial, sans-serif" font-size="14" font-weight="700">15+ domains</text>

    <rect x="378" y="122" width="104" height="30" rx="15" fill="#fff3e8" stroke="#ebbf98"/>
    <text x="408" y="142" fill="#244156" font-family="Verdana, Arial, sans-serif" font-size="14" font-weight="700">2 tasks</text>
  </g>

  <g transform="translate(780,56)" font-family="Verdana, Arial, sans-serif">
    <rect x="0" y="0" width="146" height="206" rx="14" fill="#f4f8ff" stroke="#a9bfde"/>
    <text x="16" y="32" fill="#2a4a61" font-size="20" font-weight="700">Task I</text>
    <text x="16" y="56" fill="#355971" font-size="14">Perception</text>
    <circle cx="73" cy="114" r="36" fill="#e9f0ff" stroke="#89a8da"/>
    <text x="54" y="120" fill="#31526b" font-size="13" font-weight="700">WHO</text>

    <rect x="158" y="0" width="146" height="206" rx="14" fill="#f2fbf7" stroke="#a3ceb8"/>
    <text x="174" y="32" fill="#244f47" font-size="20" font-weight="700">Task II</text>
    <text x="174" y="56" fill="#306457" font-size="14">Generation</text>
    <circle cx="231" cy="102" r="28" fill="#e5f8f1" stroke="#7fbfa6"/>
    <text x="209" y="107" fill="#2b6154" font-size="12" font-weight="700">WHEN</text>
    <rect x="193" y="136" width="76" height="24" rx="12" fill="#fff1e6" stroke="#e4b488"/>
    <text x="220" y="152" fill="#7b4a22" font-size="12" font-weight="700">HOW</text>

  </g>
</svg>
